<svg width="342" height="339" viewBox="0 0 342 339" fill="none" xmlns="http://www.w3.org/2000/svg">
<g filter="url(#filter0_d_2_9)">
<path d="M337.364 165.311C337.364 256.33 262.855 330.123 170.932 330.123C79.0096 330.123 4.5 256.33 4.5 165.311C4.5 74.2932 79.0096 0.5 170.932 0.5C262.855 0.5 337.364 74.2932 337.364 165.311Z" fill="white" stroke="black"/>
<ellipse cx="171.522" cy="148.371" rx="58.9866" ry="58.4139" fill="#D9D9D9"/>
<path d="M300.42 250.817C275.056 282.945 243.417 319.222 175.012 319.222C105.408 319.222 61.0039 279.319 43.9028 250.817C43.9028 233.716 93.6617 216.615 162.074 216.615C230.487 216.615 300.42 225.331 300.42 250.817Z" fill="#D9D9D9"/>
</g>
<defs>
<filter id="filter0_d_2_9" x="0" y="0" width="341.864" height="338.623" filterUnits="userSpaceOnUse" color-interpolation-filters="sRGB">
<feFlood flood-opacity="0" result="BackgroundImageFix"/>
<feColorMatrix in="SourceAlpha" type="matrix" values="0 0 0 0 0 0 0 0 0 0 0 0 0 0 0 0 0 0 127 0" result="hardAlpha"/>
<feOffset dy="4"/>
<feGaussianBlur stdDeviation="2"/>
<feComposite in2="hardAlpha" operator="out"/>
<feColorMatrix type="matrix" values="0 0 0 0 0 0 0 0 0 0 0 0 0 0 0 0 0 0 0.25 0"/>
<feBlend mode="normal" in2="BackgroundImageFix" result="effect1_dropShadow_2_9"/>
<feBlend mode="normal" in="SourceGraphic" in2="effect1_dropShadow_2_9" result="shape"/>
</filter>
</defs>
</svg>
